<svg width="48" height="48" viewBox="0 0 48 48" fill="none" xmlns="http://www.w3.org/2000/svg">
<rect width="48" height="48" fill="#323238"/>
<rect width="48" height="48" fill="#323238"/>
<path d="M33.4667 12C34.1783 12 34.8608 12.281 35.3641 12.781C35.8673 13.2811 36.15 13.9594 36.15 14.6667V33.3333C36.15 34.0406 35.8673 34.7189 35.3641 35.219C34.8608 35.719 34.1783 36 33.4667 36H14.6833C13.9717 36 13.2892 35.719 12.7859 35.219C12.2827 34.7189 12 34.0406 12 33.3333V14.6667C12 13.9594 12.2827 13.2811 12.7859 12.781C13.2892 12.281 13.9717 12 14.6833 12H33.4667ZM32.7958 32.6667V25.6C32.7958 24.4472 32.335 23.3416 31.5148 22.5264C30.6945 21.7113 29.582 21.2533 28.422 21.2533C27.2816 21.2533 25.9533 21.9467 25.3093 22.9867V21.5067H21.5661V32.6667H25.3093V26.0933C25.3093 25.0667 26.1412 24.2267 27.1743 24.2267C27.6724 24.2267 28.1502 24.4233 28.5024 24.7734C28.8547 25.1235 29.0526 25.5983 29.0526 26.0933V32.6667H32.7958ZM17.2057 19.4133C17.8035 19.4133 18.3768 19.1773 18.7995 18.7573C19.2222 18.3372 19.4597 17.7674 19.4597 17.1733C19.4597 15.9333 18.4534 14.92 17.2057 14.92C16.6043 14.92 16.0276 15.1574 15.6024 15.58C15.1771 16.0026 14.9383 16.5757 14.9383 17.1733C14.9383 18.4133 15.9579 19.4133 17.2057 19.4133ZM19.0706 32.6667V21.5067H15.3542V32.6667H19.0706Z" fill="white"/>
</svg>
